<svg width="29" height="29" viewBox="0 0 32 32" fill="none" xmlns="http://www.w3.org/2000/svg">
<path fill-rule="evenodd" clip-rule="evenodd" d="M6.2 22.4C6.29315 22.2758 6.41393 22.175 6.55279 22.1056C6.69164 22.0361 6.84476 22 7 22H12C12.2652 22 12.5196 22.1054 12.7071 22.2929C12.8946 22.4804 13 22.7348 13 23C13 23.2652 12.8946 23.5196 12.7071 23.7071C12.5196 23.8946 12.2652 24 12 24H7.5L3 30H29L24.5 24H20C19.7348 24 19.4804 23.8946 19.2929 23.7071C19.1054 23.5196 19 23.2652 19 23C19 22.7348 19.1054 22.4804 19.2929 22.2929C19.4804 22.1054 19.7348 22 20 22H25C25.1552 22 25.3084 22.0361 25.4472 22.1056C25.5861 22.175 25.7069 22.2758 25.8 22.4L31.8 30.4C31.9114 30.5486 31.9793 30.7252 31.996 30.9102C32.0126 31.0952 31.9775 31.2811 31.8944 31.4472C31.8114 31.6133 31.6837 31.753 31.5257 31.8507C31.3678 31.9483 31.1857 32 31 32H1C0.814289 32 0.632245 31.9483 0.474269 31.8507C0.316293 31.753 0.188626 31.6133 0.105573 31.4472C0.0225204 31.2811 -0.0126368 31.0952 0.00404116 30.9102C0.0207191 30.7252 0.0885733 30.5486 0.2 30.4L6.2 22.4Z" fill="#989898"/>
<path fill-rule="evenodd" clip-rule="evenodd" d="M16 2.00024C15.2121 2.00024 14.4319 2.15543 13.7039 2.45696C12.9759 2.75849 12.3145 3.20044 11.7574 3.75759C11.2002 4.31475 10.7583 4.97618 10.4567 5.70413C10.1552 6.43209 10 7.2123 10 8.00023C10 8.78817 10.1552 9.56838 10.4567 10.2963C10.7583 11.0243 11.2002 11.6857 11.7574 12.2429C12.3145 12.8 12.9759 13.242 13.7039 13.5435C14.4319 13.845 15.2121 14.0002 16 14.0002C17.5913 14.0002 19.1174 13.3681 20.2426 12.2429C21.3679 11.1177 22 9.59153 22 8.00023C22 6.40894 21.3679 4.88281 20.2426 3.75759C19.1174 2.63238 17.5913 2.00024 16 2.00024ZM8 8.00023C8.00014 6.46069 8.44451 4.95388 9.27979 3.66062C10.1151 2.36736 11.3058 1.34258 12.709 0.709248C14.1123 0.0759182 15.6684 -0.13906 17.1908 0.0901086C18.7132 0.319277 20.1372 0.982859 21.2918 2.00123C22.4464 3.0196 23.2826 4.34949 23.7002 5.83134C24.1177 7.31319 24.0988 8.88404 23.6457 10.3554C23.1926 11.8268 22.3246 13.1361 21.1458 14.1264C19.967 15.1167 18.5275 15.7458 17 15.9382V27.0002C17 27.2654 16.8946 27.5198 16.7071 27.7073C16.5196 27.8949 16.2652 28.0002 16 28.0002C15.7348 28.0002 15.4804 27.8949 15.2929 27.7073C15.1054 27.5198 15 27.2654 15 27.0002V15.9402C13.0659 15.6966 11.2874 14.7551 9.99843 13.2927C8.70948 11.8303 7.99884 9.94759 8 7.99823V8.00023Z" fill="#989898"/>
</svg>
