<svg width="17" height="15" viewBox="0 0 17 15" fill="none" xmlns="http://www.w3.org/2000/svg">
<path d="M12.1721 7.6875C11.3565 7.6875 10.5685 7.32562 9.95302 6.66891C9.34424 6.00858 8.98026 5.1595 8.92177 4.26328C8.85286 3.29297 9.15052 2.4 9.75989 1.74984C10.3693 1.09969 11.221 0.75 12.1721 0.75C13.1161 0.75 13.9707 1.10719 14.5782 1.75594C15.1857 2.40469 15.4908 3.30281 15.4219 4.26422C15.3623 5.1599 14.9985 6.00833 14.3907 6.66891C13.7747 7.32562 12.9872 7.6875 12.1721 7.6875ZM4.67911 7.845C3.28411 7.845 2.05739 6.55547 1.94489 4.97016C1.88724 4.15828 2.13942 3.40781 2.65599 2.85703C3.17255 2.30625 3.88505 2.01328 4.67864 2.01328C5.47224 2.01328 6.18427 2.31516 6.69755 2.86359C7.21083 3.41203 7.47099 4.16766 7.41239 4.97297C7.29802 6.55594 6.07177 7.845 4.67911 7.845ZM16.7049 10.6537C16.6304 10.4334 16.449 10.1986 16.0852 9.97594C14.9855 9.30422 13.6327 8.94891 12.1721 8.94891C10.7391 8.94891 9.3488 9.31922 8.25661 9.99188C7.02614 10.7498 6.19927 11.8552 5.86599 13.1878C5.78724 13.5014 5.67239 14.085 5.79521 14.4117C7.76606 15.1612 9.93737 15.1956 11.931 14.5089C13.9246 13.8222 15.6141 12.4579 16.7054 10.6537H16.7049ZM4.67021 12.8142C5.00161 11.4919 5.70708 10.3894 6.80161 9.49781C6.85336 9.45512 6.8927 9.39934 6.91555 9.33627C6.93839 9.2732 6.94391 9.20515 6.93151 9.13923C6.91911 9.0733 6.88925 9.01191 6.84505 8.96145C6.80085 8.91099 6.74392 8.87332 6.6802 8.85234C6.1177 8.67281 5.47552 8.57672 4.67911 8.57672C3.56255 8.57672 2.37708 8.87906 1.48505 9.42844C1.23192 9.58453 0.983486 9.64453 0.792236 9.69797C1.56008 11.395 2.83345 12.8135 4.43817 13.7592L4.52208 13.7527C4.54043 13.4357 4.59004 13.1214 4.67021 12.8142V12.8142Z" fill="black"/>
</svg>
